HIERARCHY
ROOT Hips
{
	OFFSET -10.056300 7.733760 -472.550000
	CHANNELS 6 Xposition Yposition Zposition Zrotation Yrotation Xrotation 
	JOINT Spine
	{
		OFFSET 0.000000 0.000000 0.000000
		CHANNELS 3 Zrotation Yrotation Xrotation
		JOINT Spine1
		{
			OFFSET 19.000000 0.000000 0.000000
			CHANNELS 3 Zrotation Yrotation Xrotation
			JOINT Neck
			{
				OFFSET 22.500000 0.600000 0.000000
				CHANNELS 3 Zrotation Yrotation Xrotation
				JOINT Head
				{
					OFFSET 14.000000 0.030878 0.000000
					CHANNELS 3 Zrotation Yrotation Xrotation
					End Site
					{
						OFFSET 17.000000 0.000000 0.000000
					}
				}
			}
			JOINT LeftShoulder
			{
				OFFSET 19.800000 3.700000 4.300000
				CHANNELS 3 Zrotation Yrotation Xrotation
				JOINT LeftArm
				{
					OFFSET 8.000000 0.000000 0.000000
					CHANNELS 3 Zrotation Yrotation Xrotation
					JOINT LeftForeArm
					{
						OFFSET 15.200000 0.000000 0.000000
						CHANNELS 3 Zrotation Yrotation Xrotation
						JOINT LeftHand
						{
							OFFSET 17.800000 0.000000 0.000000
							CHANNELS 3 Zrotation Yrotation Xrotation
							End Site
							{
								OFFSET 7.200000 0.000000 0.000000
							}
						}
					}
				}
			}
			JOINT RightShoulder
			{
				OFFSET 19.800000 3.700000 -4.300000
				CHANNELS 3 Zrotation Yrotation Xrotation
				JOINT RightArm
				{
					OFFSET 8.000000 0.000000 0.151654
					CHANNELS 3 Zrotation Yrotation Xrotation
					JOINT RightForeArm
					{
						OFFSET 15.200000 0.000000 0.000000
						CHANNELS 3 Zrotation Yrotation Xrotation
						JOINT RightHand
						{
							OFFSET 17.800000 0.000000 0.000000
							CHANNELS 3 Zrotation Yrotation Xrotation
							End Site
							{
								OFFSET 7.200000 0.000000 0.000000
							}
						}
					}
				}
			}
		}
	}
	JOINT LeftUpLeg
	{
		OFFSET 5.984250 -7.666000 4.788790
		CHANNELS 3 Zrotation Yrotation Xrotation
		JOINT LeftLeg
		{
			OFFSET 16.000000 0.000000 0.000000
			CHANNELS 3 Zrotation Yrotation Xrotation
			JOINT LeftFoot
			{
				OFFSET 18.000000 0.000000 0.000000
				CHANNELS 3 Zrotation Yrotation Xrotation
				End Site
				{
					OFFSET 0.000000 -10.800000 0.000000
				}
			}
		}
	}
	JOINT RightUpLeg
	{
		OFFSET 5.984250 -7.665980 -4.788790
		CHANNELS 3 Zrotation Yrotation Xrotation
		JOINT RightLeg
		{
			OFFSET 16.000000 0.000000 0.000000
			CHANNELS 3 Zrotation Yrotation Xrotation
			JOINT RightFoot
			{
				OFFSET 18.000000 0.000000 0.000000
				CHANNELS 3 Zrotation Yrotation Xrotation
				End Site
				{
					OFFSET 0.000000 -10.800000 0.000000
				}
			}
		}
	}
	JOINT Tail
	{
		OFFSET 6.836960 -0.722574 0.000000
		CHANNELS 3 Zrotation Yrotation Xrotation
		JOINT Tail1
		{
			OFFSET 12.000000 0.000000 0.000000
			CHANNELS 3 Zrotation Yrotation Xrotation
			End Site
			{
				OFFSET 12.000000 0.000000 0.000000
			}
		}
	}
}
MOTION
Frames: 13
Frame Time: 0.033333
-3670709.750000 -814003.562500 -1435874.000000 12.017524 -0.305563 12.928041 -144.467087 -12.478180 2.186826 -92.546165 -0.177108 -6.833973 26.451616 9.650179 2.714246 7.595880 -11.287004 -136.110260 -19.821779 2.433509 -173.731216 -18.722202 -30.805838 133.737961 -133.882904 -17.687061 165.269608 -160.331161 7.697280 -129.514648 -108.447868 62.403351 162.010956 -31.976843 -29.805191 137.729080 102.372299 -57.044331 -52.021557 125.073120 -25.930868 -66.640503 -131.054245 -40.085308 -5.403714 78.292603 -6.675127 103.583504 117.478279 -48.449940 -59.819641 -99.998070 2.296193 -40.173717 38.683739 38.831562 -0.209826 140.246506 -9.362412 -40.149731 -87.802368 3.674321 -101.133949 -7.146099 6.713176 -153.339401 
-3689020.250000 -821248.625000 -1438775.625000 9.480753 -2.411677 15.713120 -145.022186 -12.454157 2.413702 -92.097961 1.559539 -8.480298 24.268488 7.879326 2.168596 6.159171 -14.945445 -137.307770 -33.634808 1.275196 -162.255051 -10.282774 -30.341341 138.372620 -129.582367 -13.798627 163.432724 -158.838974 5.991915 -125.182144 -178.686279 79.595284 89.911499 -31.445940 -29.436525 141.115250 96.575851 -45.034641 -53.252552 126.272804 -27.445778 -69.963875 -129.358994 -40.693447 -5.609546 79.526886 -5.003827 105.016396 117.366318 -47.318256 -59.588570 -98.370979 0.997931 -37.242550 41.262173 38.779881 -6.051614 135.291992 -10.536630 -41.467983 -81.230339 -4.810030 -99.158310 -8.263423 7.320013 -150.582031 
-3714777.500000 -832318.562500 -1441819.625000 7.588470 -3.716269 18.624378 -145.434235 -12.378325 2.688380 -91.651588 3.052868 -9.873465 21.741507 5.928451 1.510716 4.347040 -18.368284 -138.509201 -43.310555 2.552664 -150.216354 -5.477523 -31.203772 142.276459 -126.568565 -9.622265 163.003906 -157.784775 4.054671 -122.375137 113.210320 60.184689 18.549679 -30.114927 -29.473381 143.941696 90.828903 -32.065712 -55.599449 127.232460 -29.430611 -74.065109 -128.841293 -41.498077 -5.295785 79.531067 -2.382582 104.694725 116.691833 -46.914410 -59.785755 -96.644920 -1.217827 -31.713366 41.100887 40.284912 -12.638145 130.977859 -11.648790 -42.576691 -75.366974 -14.831944 -97.751541 -9.614529 8.037477 -146.055496 
-3738438.750000 -841993.437500 -1444921.750000 6.701607 -4.641757 21.525745 -145.687073 -12.244562 2.997549 -91.308243 4.313725 -10.995973 19.022865 3.654647 0.852727 2.728971 -21.778553 -139.665375 -47.908287 4.848567 -138.245514 -3.013379 -32.356857 145.280731 -124.207886 -5.537445 163.500000 -157.068146 1.989685 -120.454872 104.018929 35.653824 4.401011 -28.197872 -29.900381 146.333893 86.346260 -19.684574 -59.150261 127.542038 -31.819933 -78.571381 -129.254227 -42.250515 -4.628293 78.561745 0.589599 103.137596 115.887169 -47.388729 -60.984623 -95.860733 -4.288262 -23.833981 38.692348 43.466713 -19.658693 127.376999 -12.628488 -43.600430 -70.728065 -25.537062 -96.988876 -10.990294 9.047128 -139.565277 
-3757720.750000 -854613.437500 -1447298.250000 6.279762 -6.038745 24.203796 -145.774811 -12.069736 3.337046 -91.129448 5.303712 -11.789433 16.502230 1.033151 0.224530 1.756947 -24.897341 -140.867691 -48.093361 7.024101 -125.790054 -1.319975 -33.805660 147.013397 -121.691277 -2.860764 164.527420 -156.572540 -0.264596 -118.145653 101.928207 16.516369 -4.004755 -25.781630 -30.940342 148.418503 84.317352 -9.043036 -62.688122 127.089035 -34.027225 -82.620636 -130.155319 -42.808418 -3.865396 77.188553 3.197886 101.032440 115.573860 -47.848831 -62.467793 -96.871948 -7.394847 -14.123274 36.148861 47.830486 -25.825544 124.006081 -13.653085 -44.729977 -67.132065 -35.049690 -96.523682 -11.722873 10.656104 -131.493820 
-3772011.750000 -866910.500000 -1450528.750000 6.461604 -7.916166 26.640293 -145.666000 -11.885863 3.694625 -91.128601 5.961099 -12.180375 14.272797 -1.934214 -0.367361 1.856116 -28.208008 -142.385452 -45.309677 8.571546 -113.775208 0.243603 -35.482716 147.202271 -118.940140 -2.134889 165.634995 -156.087265 -2.274718 -116.076706 101.867393 3.952725 -11.293818 -22.865053 -32.483982 150.119537 85.732498 -1.442471 -66.545792 125.892868 -34.727299 -84.651062 -131.338623 -43.022034 -3.004662 75.606468 5.382761 98.664688 115.843407 -48.116978 -64.153023 -101.142982 -9.761120 -2.649417 37.186321 54.511669 -29.537079 120.094238 -15.194831 -46.431793 -64.145699 -43.006374 -95.851959 -11.267266 12.902620 -122.190346 
-3785234.500000 -878916.500000 -1453613.000000 6.939270 -10.366413 28.517418 -145.380402 -11.723780 4.056265 -91.264786 6.223071 -12.129157 12.336161 -5.071154 -0.929264 3.903592 -32.185863 -144.277649 -40.783176 8.903615 -102.765381 2.163589 -37.693790 145.774902 -116.048927 -3.616060 166.513138 -155.532257 -3.947647 -115.026749 102.864456 -3.002176 -18.488363 -19.389490 -34.543331 151.111023 91.581726 2.509071 -72.120064 124.719223 -32.216064 -83.241806 -132.611435 -42.887344 -1.917377 73.989502 7.292541 96.223442 116.662971 -48.267334 -66.003441 -108.974785 -10.045530 9.023067 45.517239 63.960232 -27.790941 115.145332 -17.683750 -48.858585 -58.508423 -49.320358 -96.778946 -8.994056 15.517955 -111.444870 
-3802939.000000 -891012.812500 -1457044.750000 8.033091 -13.268726 30.089611 -144.906937 -11.601214 4.413258 -91.548332 6.086001 -11.676074 10.675142 -8.077249 -1.405588 7.410774 -36.438396 -146.387756 -35.408699 8.913558 -92.745056 3.954679 -40.098721 143.121887 -113.015121 -6.842889 167.271973 -155.123749 -5.847479 -114.360199 104.338974 -5.711895 -25.443930 -15.300648 -37.191883 151.239471 101.340973 4.210478 -79.921005 124.353065 -26.332468 -78.669708 -133.984207 -42.424965 -0.414665 72.731674 8.820431 94.007156 118.085945 -48.165390 -67.841576 -118.696152 -7.703459 19.257858 70.723846 73.761986 -10.202934 109.686066 -20.977461 -51.794014 -49.376404 -54.288940 -100.448029 -4.807244 18.059193 -98.413399 
-3821299.750000 -900666.375000 -1460677.000000 10.039087 -15.867046 31.817612 -144.239563 -11.537015 4.749770 -92.031464 5.578259 -10.920961 9.466614 -10.609025 -1.775057 12.011876 -40.419327 -148.710632 -30.926596 10.350190 -85.139099 7.022016 -42.811687 138.499542 -109.843697 -10.856219 168.043839 -155.022156 -8.443377 -113.736816 106.108284 -6.404291 -31.122448 -10.804701 -40.036434 150.329239 113.899193 5.914165 -89.248032 125.166908 -18.975225 -73.091591 -135.775131 -41.897766 1.655112 72.372902 9.083217 92.289856 120.139671 -47.940464 -70.019234 -129.601959 -3.482500 27.043728 138.050400 76.344833 47.768440 104.558487 -25.067595 -55.731586 -40.571472 -60.479832 -105.607170 -0.097310 19.947367 -82.336563 
-3836448.750000 -908511.437500 -1464465.875000 12.595390 -18.308611 34.400063 -143.355423 -11.536811 5.051545 -92.777443 4.754547 -9.988054 8.784336 -12.340334 -2.008160 17.749023 -43.669872 -151.284729 -27.273367 13.315766 -79.796982 11.677189 -45.504051 131.728394 -106.247101 -15.239652 168.890289 -155.224915 -11.815386 -113.141479 107.769981 -6.192196 -35.237495 -5.879332 -43.188274 148.003464 126.719772 9.427205 -98.453110 126.642563 -11.687811 -67.455078 -137.884995 -41.673679 4.185637 73.094223 7.818153 90.965996 122.819427 -47.670803 -72.646500 -140.858307 1.503914 32.376995 179.875534 64.751251 79.520447 100.383636 -29.799482 -60.811321 -31.542116 -68.247070 -113.443008 4.130838 20.575260 -62.817726 
-3843682.750000 -912894.687500 -1467684.000000 11.782838 -14.105720 35.124859 -134.649796 -13.419568 0.748161 -85.761192 0.582202 -7.313462 2.482867 -6.483564 -6.966333 20.048193 -36.585381 -158.062332 -13.905833 17.386312 -66.605637 13.389714 -58.460808 127.029503 -94.135605 -11.128636 168.418732 -144.753403 -13.421485 -118.664680 104.732880 1.770810 -34.033077 0.778332 -38.951275 151.880875 138.662979 3.430469 -111.252144 131.391281 6.792838 -56.905228 -145.844727 -33.309509 3.795846 64.462082 5.018564 89.738998 131.223724 -43.673725 -87.124611 -159.562057 1.390599 38.370090 -173.408646 67.449982 81.435631 91.408905 -38.526131 -70.511276 -27.139601 -78.684029 -118.430023 8.987937 20.145424 -38.419212 
-3851680.500000 -919445.625000 -1469697.750000 14.209026 -18.627609 49.085300 -133.979935 -13.678826 1.092132 -87.296730 -1.435495 -6.898572 2.160066 -6.581241 -6.865209 25.092213 -37.638554 -159.852341 -8.917561 20.905474 -63.688828 19.572981 -61.120640 116.576408 -87.798317 -31.293709 167.840576 -145.745697 -16.538166 -123.602661 102.876282 4.441159 -35.755051 5.176854 -43.430912 148.725601 147.512924 8.440492 -119.859924 136.945801 14.202703 -44.674946 -149.614746 -35.530979 12.996819 68.262962 0.708621 90.040306 132.743469 -42.634960 -86.986115 -167.825104 4.460447 40.435665 178.516769 64.858643 76.574852 88.374947 -42.633091 -74.929489 47.301594 -81.606789 165.102539 6.131962 17.260969 -19.729801 
-3866704.500000 -922922.250000 -1472648.750000 19.546371 -24.434706 53.289917 -132.739868 -14.112428 0.701488 -89.097565 -3.299135 -6.325208 2.679045 -6.141797 -6.833464 33.313957 -38.408539 -162.977081 -3.188841 23.050020 -60.861633 21.732733 -63.427811 109.107567 -83.573784 -34.956608 168.471680 -145.095383 -21.022766 -129.387863 101.354568 1.805912 -30.206865 10.700697 -48.522800 144.342865 154.758301 12.517482 -128.644669 145.426437 20.615717 -29.836624 -152.547699 -37.385136 18.501593 73.493202 -4.602709 90.144730 133.205032 -41.894478 -84.935959 -174.307007 5.982029 41.037178 156.458939 66.717285 63.802364 96.757172 -42.977684 -88.417389 96.849930 -80.740990 112.581329 4.930119 16.954004 -2.926708 
